<svg id="visual" viewBox="0 0 900 600" width="900" height="600" xmlns="http://www.w3.org/2000/svg" xmlns:xlink="http://www.w3.org/1999/xlink" version="1.1"><g stroke-width="1" stroke-linejoin="bevel"><path d="M477 319L416 384L487 380Z" fill="#4e004e" stroke="#4e004e"></path><path d="M477 319L393 263L416 384Z" fill="#3a003a" stroke="#3a003a"></path><path d="M633 288L506 235L477 319Z" fill="#520052" stroke="#520052"></path><path d="M477 319L506 235L393 263Z" fill="#4b004b" stroke="#4b004b"></path><path d="M286 289L332 415L416 384Z" fill="#440044" stroke="#440044"></path><path d="M416 384L435 509L487 380Z" fill="#520052" stroke="#520052"></path><path d="M564 486L596 377L487 380Z" fill="#550055" stroke="#550055"></path><path d="M487 380L596 377L477 319Z" fill="#410041" stroke="#410041"></path><path d="M506 235L384 215L393 263Z" fill="#410041" stroke="#410041"></path><path d="M393 263L286 289L416 384Z" fill="#360036" stroke="#360036"></path><path d="M332 415L435 509L416 384Z" fill="#410041" stroke="#410041"></path><path d="M435 509L564 486L487 380Z" fill="#3d003d" stroke="#3d003d"></path><path d="M384 215L286 289L393 263Z" fill="#440044" stroke="#440044"></path><path d="M435 509L511 535L564 486Z" fill="#330033" stroke="#330033"></path><path d="M664 327L633 288L596 377Z" fill="#3d003d" stroke="#3d003d"></path><path d="M596 377L633 288L477 319Z" fill="#410041" stroke="#410041"></path><path d="M681 378L664 327L596 377Z" fill="#330033" stroke="#330033"></path><path d="M229 498L286 508L332 415Z" fill="#550055" stroke="#550055"></path><path d="M332 415L286 508L435 509Z" fill="#410041" stroke="#410041"></path><path d="M435 509L514 600L511 535Z" fill="#410041" stroke="#410041"></path><path d="M564 486L681 378L596 377Z" fill="#440044" stroke="#440044"></path><path d="M691 533L681 378L564 486Z" fill="#4b004b" stroke="#4b004b"></path><path d="M384 215L261 215L286 289Z" fill="#410041" stroke="#410041"></path><path d="M170 426L229 498L332 415Z" fill="#440044" stroke="#440044"></path><path d="M709 204L600 169L633 288Z" fill="#4e004e" stroke="#4e004e"></path><path d="M633 288L600 169L506 235Z" fill="#3a003a" stroke="#3a003a"></path><path d="M506 235L496 95L384 215Z" fill="#4b004b" stroke="#4b004b"></path><path d="M384 215L271 93L261 215Z" fill="#3d003d" stroke="#3d003d"></path><path d="M363 600L514 600L435 509Z" fill="#360036" stroke="#360036"></path><path d="M511 535L636 600L564 486Z" fill="#360036" stroke="#360036"></path><path d="M286 508L363 600L435 509Z" fill="#550055" stroke="#550055"></path><path d="M170 426L332 415L286 289Z" fill="#360036" stroke="#360036"></path><path d="M286 508L304 600L363 600Z" fill="#520052" stroke="#520052"></path><path d="M600 169L496 95L506 235Z" fill="#410041" stroke="#410041"></path><path d="M261 215L175 314L286 289Z" fill="#550055" stroke="#550055"></path><path d="M223 600L304 600L286 508Z" fill="#440044" stroke="#440044"></path><path d="M175 314L170 426L286 289Z" fill="#410041" stroke="#410041"></path><path d="M229 498L223 600L286 508Z" fill="#550055" stroke="#550055"></path><path d="M496 95L428 66L384 215Z" fill="#440044" stroke="#440044"></path><path d="M664 327L709 204L633 288Z" fill="#440044" stroke="#440044"></path><path d="M600 169L599 65L496 95Z" fill="#3d003d" stroke="#3d003d"></path><path d="M785 323L709 204L664 327Z" fill="#410041" stroke="#410041"></path><path d="M636 600L691 533L564 486Z" fill="#470047" stroke="#470047"></path><path d="M681 378L785 323L664 327Z" fill="#440044" stroke="#440044"></path><path d="M514 600L636 600L511 535Z" fill="#3a003a" stroke="#3a003a"></path><path d="M428 66L271 93L384 215Z" fill="#550055" stroke="#550055"></path><path d="M261 215L165 207L175 314Z" fill="#4b004b" stroke="#4b004b"></path><path d="M197 127L165 207L261 215Z" fill="#550055" stroke="#550055"></path><path d="M175 314L104 379L170 426Z" fill="#4b004b" stroke="#4b004b"></path><path d="M675 99L599 65L600 169Z" fill="#3a003a" stroke="#3a003a"></path><path d="M518 0L388 0L428 66Z" fill="#4e004e" stroke="#4e004e"></path><path d="M92 600L223 600L229 498Z" fill="#4b004b" stroke="#4b004b"></path><path d="M805 396L785 323L681 378Z" fill="#330033" stroke="#330033"></path><path d="M271 93L197 127L261 215Z" fill="#520052" stroke="#520052"></path><path d="M800 179L675 99L709 204Z" fill="#410041" stroke="#410041"></path><path d="M709 204L675 99L600 169Z" fill="#410041" stroke="#410041"></path><path d="M87 337L104 379L175 314Z" fill="#3a003a" stroke="#3a003a"></path><path d="M170 426L96 467L229 498Z" fill="#440044" stroke="#440044"></path><path d="M636 600L701 600L691 533Z" fill="#360036" stroke="#360036"></path><path d="M691 533L805 396L681 378Z" fill="#410041" stroke="#410041"></path><path d="M828 482L805 396L691 533Z" fill="#3d003d" stroke="#3d003d"></path><path d="M428 66L388 0L271 93Z" fill="#520052" stroke="#520052"></path><path d="M271 93L221 0L197 127Z" fill="#360036" stroke="#360036"></path><path d="M518 0L428 66L496 95Z" fill="#360036" stroke="#360036"></path><path d="M615 0L518 0L599 65Z" fill="#4b004b" stroke="#4b004b"></path><path d="M599 65L518 0L496 95Z" fill="#410041" stroke="#410041"></path><path d="M104 174L87 337L165 207Z" fill="#520052" stroke="#520052"></path><path d="M165 207L87 337L175 314Z" fill="#440044" stroke="#440044"></path><path d="M0 384L96 467L104 379Z" fill="#3a003a" stroke="#3a003a"></path><path d="M104 379L96 467L170 426Z" fill="#4b004b" stroke="#4b004b"></path><path d="M197 127L104 174L165 207Z" fill="#360036" stroke="#360036"></path><path d="M103 75L104 174L197 127Z" fill="#410041" stroke="#410041"></path><path d="M684 0L615 0L599 65Z" fill="#410041" stroke="#410041"></path><path d="M785 323L800 179L709 204Z" fill="#520052" stroke="#520052"></path><path d="M675 99L684 0L599 65Z" fill="#410041" stroke="#410041"></path><path d="M839 133L800 179L900 202Z" fill="#550055" stroke="#550055"></path><path d="M388 0L272 0L271 93Z" fill="#360036" stroke="#360036"></path><path d="M829 600L828 482L691 533Z" fill="#330033" stroke="#330033"></path><path d="M900 284L800 179L785 323Z" fill="#3d003d" stroke="#3d003d"></path><path d="M272 0L221 0L271 93Z" fill="#4e004e" stroke="#4e004e"></path><path d="M770 0L684 0L675 99Z" fill="#330033" stroke="#330033"></path><path d="M0 499L92 600L96 467Z" fill="#330033" stroke="#330033"></path><path d="M96 467L92 600L229 498Z" fill="#410041" stroke="#410041"></path><path d="M135 0L103 75L197 127Z" fill="#470047" stroke="#470047"></path><path d="M0 262L0 384L87 337Z" fill="#4e004e" stroke="#4e004e"></path><path d="M900 284L785 323L805 396Z" fill="#3d003d" stroke="#3d003d"></path><path d="M800 179L839 133L675 99Z" fill="#4b004b" stroke="#4b004b"></path><path d="M87 337L0 384L104 379Z" fill="#4e004e" stroke="#4e004e"></path><path d="M0 262L87 337L104 174Z" fill="#360036" stroke="#360036"></path><path d="M701 600L829 600L691 533Z" fill="#470047" stroke="#470047"></path><path d="M828 482L900 424L805 396Z" fill="#440044" stroke="#440044"></path><path d="M900 472L900 424L828 482Z" fill="#410041" stroke="#410041"></path><path d="M900 424L900 284L805 396Z" fill="#410041" stroke="#410041"></path><path d="M0 182L0 262L104 174Z" fill="#330033" stroke="#330033"></path><path d="M900 600L900 472L828 482Z" fill="#3a003a" stroke="#3a003a"></path><path d="M0 384L0 499L96 467Z" fill="#4b004b" stroke="#4b004b"></path><path d="M221 0L135 0L197 127Z" fill="#4b004b" stroke="#4b004b"></path><path d="M0 120L0 182L104 174Z" fill="#550055" stroke="#550055"></path><path d="M900 284L900 202L800 179Z" fill="#330033" stroke="#330033"></path><path d="M900 78L770 0L839 133Z" fill="#4b004b" stroke="#4b004b"></path><path d="M839 133L770 0L675 99Z" fill="#4b004b" stroke="#4b004b"></path><path d="M0 120L104 174L103 75Z" fill="#330033" stroke="#330033"></path><path d="M0 0L0 120L103 75Z" fill="#4b004b" stroke="#4b004b"></path><path d="M0 499L0 600L92 600Z" fill="#550055" stroke="#550055"></path><path d="M829 600L900 600L828 482Z" fill="#4e004e" stroke="#4e004e"></path><path d="M900 202L900 78L839 133Z" fill="#550055" stroke="#550055"></path><path d="M135 0L0 0L103 75Z" fill="#4b004b" stroke="#4b004b"></path><path d="M900 78L900 0L770 0Z" fill="#4e004e" stroke="#4e004e"></path></g></svg>